<?xml version="1.0" encoding="UTF-8" standalone="no"?>
<!-- Created with Inkscape (http://www.inkscape.org/) -->

<svg
   width="244.01237mm"
   height="256.51352mm"
   viewBox="0 0 244.01237 256.51352"
   version="1.1"
   id="svg1"
   sodipodi:docname="sentinel.svg"
   xml:space="preserve"
   inkscape:version="1.4.3 (0d15f75042, 2025-12-25)"
   xmlns:inkscape="http://www.inkscape.org/namespaces/inkscape"
   xmlns:sodipodi="http://sodipodi.sourceforge.net/DTD/sodipodi-0.dtd"
   xmlns="http://www.w3.org/2000/svg"
   xmlns:svg="http://www.w3.org/2000/svg"><sodipodi:namedview
     id="namedview1"
     pagecolor="#ffffff"
     bordercolor="#000000"
     borderopacity="0.25"
     inkscape:showpageshadow="2"
     inkscape:pageopacity="0.0"
     inkscape:pagecheckerboard="0"
     inkscape:deskcolor="#d1d1d1"
     inkscape:document-units="mm"
     inkscape:zoom="0.98578848"
     inkscape:cx="396.63681"
     inkscape:cy="687.77432"
     inkscape:window-width="3840"
     inkscape:window-height="2091"
     inkscape:window-x="0"
     inkscape:window-y="0"
     inkscape:window-maximized="1"
     inkscape:current-layer="layer1"
     inkscape:clip-to-page="false" /><defs
     id="defs1" /><g
     inkscape:label="Layer 1"
     inkscape:groupmode="layer"
     id="layer1"
     transform="translate(18.550823,-16.477989)"><path
       style="fill:#000000"
       d="m 175.68175,272.88591 c -0.21393,-0.20502 -13.40418,-3.06029 -18.36649,-3.97576 -15.47468,-2.85484 -29.41444,-4.46554 -44.75659,-5.17149 l -5.59825,-0.2576 -5.11737,0.26324 c -9.125953,0.46945 -18.869003,1.42413 -29.723623,2.91248 -5.92034,0.81178 -10.26621,1.48285 -23.01875,3.55446 -9.58833,1.5576 -12.54248,1.95258 -16.14083,2.15809 l -3.04146,0.17371 v -3.44606 -3.44607 l 4.43177,-0.13665 4.43177,-0.13665 8.99583,-1.09186 c 16.84262,-2.04426 27.16606,-3.11966 36.38021,-3.78975 l 4.63021,-0.33673 h 20.108333 20.10833 l 4.36563,0.33548 c 16.75542,1.28758 43.5205,4.86454 44.61896,5.96299 0.0532,0.0532 -0.23099,1.54501 -0.63146,3.3152 l -0.72813,3.21853 -0.41892,5e-5 c -0.23041,2e-5 -0.46853,-0.0475 -0.52917,-0.10561 z m 34.5048,-16.26422 c -13.81115,-1.4155 -12.44406,-0.97088 -11.62936,-3.78222 l 0.6464,-2.23061 0.0902,-13.61333 0.0902,-13.61334 -0.97093,-2.18034 c -1.17796,-2.64527 -1.794,-2.35098 5.4027,-2.58098 l 6.01927,-0.19238 v 0.43294 c 0,0.23811 -0.42848,1.28378 -0.95218,2.32371 l -0.95218,1.89077 0.19504,14.24921 c 0.10727,7.83707 0.26965,14.29533 0.36084,14.35169 0.0912,0.0564 1.77019,0.37019 3.73111,0.6974 l 3.56531,0.59494 1.85467,-0.31418 c 2.37014,-0.4015 4.2354,-1.3458 6.23797,-3.15802 2.13589,-1.93286 2.14463,-2.36593 -0.15774,7.81805 l -0.13459,0.59531 -0.72256,-0.0318 c -0.39741,-0.0175 -6.10079,-0.58307 -12.67419,-1.25677 z m -221.146293,0.58112 c -1.21033,-0.15105 -4.59264,-0.87684 -6.17679,-1.32545 l -1.41429,-0.40051 0.15012,-2.02441 c 0.0826,-1.11343 0.22449,-3.19063 0.31539,-4.61601 l 0.16528,-2.59159 2.15723,2.06698 2.15723,2.06698 1.98437,0.97645 1.98438,0.97646 1.9321,0.22959 c 1.96647,0.23368 3.79983,0.0919 5.79151,-0.4479 l 1.10903004,-0.30058 0.93259,-1.08952 c 0.51293,-0.59924 1.12963996,-1.68277 1.37046996,-2.40785 l 0.43788,-1.31832 -0.3199,-1.06773 c -0.86452996,-2.88554 -1.85361996,-3.71595 -7.15264,-6.00515 -2.4011,-1.03727 -5.25254,-2.32466 -6.33655,-2.86086 l -1.97093,-0.97491 -1.41,-1.3766 -1.41001,-1.37661 -0.63057,-1.40467 c -1.69654,-3.77922 -0.80665,-8.48463 2.20733,-11.67146 l 1.32582,-1.40186 1.92964,-0.96181 c 1.0613,-0.52899 2.88214,-1.21788 4.04631,-1.53086 l 2.11667,-0.56906 3.10876,-0.1456 3.10876004,-0.1456 2.05060996,0.32282 c 1.12784,0.17756 2.80504,0.50861 3.72711,0.73568 l 1.6765,0.41286 0.14716,0.3835 c 0.2085,0.54335 -0.49194,7.47819 -0.75532,7.47819 -0.11974,0 -0.38954,-0.32742 -0.59956,-0.72761 -2.89419,-5.5146 -13.08865,-6.18165 -15.73984,-1.02989 l -0.63236,1.22879 0.47641,1.24747 c 0.26203,0.6861 0.90325,1.6823 1.42493,2.21376 l 0.9485,0.9663 5.42396,2.47135 c 2.98318,1.35924 6.21655,2.97275 7.18527,3.58557 l 1.7613,1.11422 1.06436,1.41033 c 0.5854,0.77568 1.33763,2.00565 1.67164,2.73325 l 0.60728,1.32292 0.002,2.77812 0.002,2.77813 -0.88145,1.81179 -0.88145,1.81179 -1.53471,1.5347 c -2.49781,2.49781 -5.96768,4.19874 -9.99976,4.90188 l -2.24147,0.39088 -2.80962,-0.0396 c -1.54528,-0.0218 -3.1668,-0.0842 -3.60336,-0.13869 z m 189.573963,-3.05612 c -11.99967,-0.6106 -10.40873,-0.0211 -9.78158,-3.6246 l 0.52116,-2.99452 v -12.16935 -12.16936 l -0.92604,-1.97744 c -0.50932,-1.08759 -0.92593,-2.11565 -0.92579,-2.28458 l 2.5e-4,-0.30715 h 11.44298 11.44298 l 0.0758,2.74536 0.0758,2.74535 -0.60494,-0.17583 c -0.33272,-0.0967 -1.49791,-0.42016 -2.58931,-0.7188 l -1.98438,-0.54298 -3.77031,-0.1448 -3.77031,-0.1448 v 3.43614 c 0,1.88988 0.0783,4.36224 0.17396,5.49414 l 0.17397,2.05799 5.00532,-0.11989 5.00532,-0.11988 -0.18407,2.269 c -0.10123,1.24795 -0.22889,2.31825 -0.28369,2.37844 -0.10978,0.1206 -8.34345,-0.4627 -9.2955,-0.65853 l -0.59531,-0.12245 v 6.3284 6.3284 l 3.3124,0.19105 c 1.82183,0.10508 4.3562,0.14115 5.63195,0.0802 l 2.31953,-0.11089 2.07674,-1.12018 c 2.53941,-1.36974 2.38596,-1.60658 1.60232,2.47319 -0.36049,1.87679 -0.65544,3.44716 -0.65544,3.4897 0,0.13567 -3.05367,0.02 -13.49375,-0.51128 z M 16.512727,253.34625 c 0.0815,-0.47294 0.28015,-2.64583 0.44148,-4.82864 l 0.29332,-3.96875 -0.0807,-10.58334 -0.0807,-10.58333 -1.09372,-2.18621 -1.09371,-2.18621 0.25802,-0.15947 c 0.14191,-0.0877 5.58704,-0.22282 12.1003,-0.30027 l 11.84227,-0.1408 0.13523,0.23752 c 0.16384,0.2878 -0.40275,5.83216 -0.618,6.04741 -0.0838,0.0838 -0.83485,-0.25872 -1.66908,-0.76107 -2.25406,-1.35732 -6.41399,-1.90077 -10.00558,-1.30712 l -0.99219,0.164 v 5.13718 5.13719 l 4.96094,-0.0786 4.96094,-0.0786 0.21301,2.6092 c 0.25338,3.10356 0.30441,3.01883 -1.32182,2.19476 -2.06212,-1.04496 -5.28075,-1.48212 -7.82088,-1.06226 l -0.99219,0.164 v 6.02249 6.02249 l 0.46302,0.19414 c 0.25466,0.10678 2.01083,0.25065 3.90261,0.31973 l 3.43958,0.12558 1.8237,-0.42866 c 1.00304,-0.23576 2.75921,-0.83407 3.9026,-1.32957 1.1434,-0.49549 2.07891,-0.82572 2.07891,-0.73384 0,0.0919 -0.42711,1.51155 -0.94913,3.15481 l -0.94912,2.98775 -0.83681,0.002 c -0.46025,0.001 -5.59932,0.23761 -11.42015,0.52525 -5.82083,0.28765 -10.68615,0.52475 -10.8118,0.52691 -0.12566,0.002 -0.1618,-0.38305 -0.0803,-0.85599 z m 140.670243,-0.50426 c -0.50932,-0.31427 -1.75002,-1.47535 -2.75711,-2.58018 -1.00709,-1.10483 -2.44217,-2.66363 -3.18907,-3.464 -0.74689,-0.80036 -3.25189,-3.5388 -5.56665,-6.08541 -4.12714,-4.54053 -5.16313,-5.66673 -8.1536,-8.86354 l -1.48503,-1.5875 -0.008,8.86886 -0.008,8.86886 0.51192,1.84676 c 0.28156,1.01572 0.59195,2.05513 0.68977,2.30979 l 0.17784,0.46302 h -3.3356 -3.3356 l 3.2e-4,-0.33073 c 1.7e-4,-0.1819 0.19074,-1.2237 0.42348,-2.31511 l 0.42318,-1.98437 0.13315,-11.28101 0.13316,-11.281 -0.42677,-1.46805 c -0.23473,-0.80742 -0.96147,-2.26541 -1.61498,-3.23996 -0.65351,-0.97456 -1.1882,-1.87522 -1.1882,-2.00147 v -0.22955 h 4.34672 4.34673 l 0.34963,0.35534 c 0.19229,0.19544 4.51681,4.96789 9.61004,10.60545 l 9.26042,10.2501 0.0702,-7.75333 0.0702,-7.75333 -0.56021,-2.12451 c -0.30812,-1.16848 -0.6215,-2.3924 -0.6964,-2.71982 l -0.13617,-0.59532 h 3.71939 c 4.3044,0 4.17145,-0.083 3.20158,1.99925 l -0.74635,1.60236 -0.17642,14.00805 c -0.097,7.70443 -0.25206,14.66289 -0.34449,15.46326 l -0.16807,1.45521 -1.32291,0.0666 -1.32292,0.0666 z M 45.528737,252.5525 c -3e-5,-0.1819 0.30116,-1.35456 0.66931,-2.60592 l 0.66936,-2.2752 -0.074,-12.0123 -0.074,-12.01231 -1.12448,-2.35172 c -0.61846,-1.29346 -1.12448,-2.46148 -1.12448,-2.59562 v -0.24388 l 3.9026,0.18557 c 2.14644,0.10207 4.05676,0.20629 4.24516,0.23162 0.3411,0.0458 1.8626,1.61589 4.23288,4.36794 0.68497,0.79529 2.79537,3.17654 4.68977,5.29167 1.89441,2.11512 4.85941,5.43544 6.58891,7.37849 l 3.14453,3.53283 0.28577,-0.49012 0.28578,-0.49011 -0.0259,-4.89479 c -0.0331,-6.25034 -0.62483,-11.23201 -1.63883,-13.79727 -0.15227,-0.38522 -0.20508,-0.77218 -0.11736,-0.8599 0.23318,-0.23318 7.21618,-0.19546 7.20882,0.0389 -0.003,0.10914 -0.25772,1.09141 -0.56512,2.18281 l -0.55889,1.98438 -0.22667,14.41979 c -0.12467,7.93088 -0.28335,14.56862 -0.35262,14.75052 l -0.12594,0.33073 h -1.47666 -1.47665 l -0.71446,-0.3755 c -0.74969,-0.39401 -1.74948,-1.46052 -9.44533,-10.07554 -2.59989,-2.91042 -6.10435,-6.81071 -7.78769,-8.66732 l -3.06061,-3.37564 -0.21767,8.50209 -0.21766,8.5021 0.5485,2.67876 c 0.30168,1.47332 0.54845,2.76805 0.54839,2.87719 -6e-5,0.10914 -1.48839,0.19844 -3.3074,0.19844 h -3.30729 z m 43.90047,-0.52916 c 0.12708,-0.32743 0.48132,-1.2248 0.7872,-1.99417 l 0.55614,-1.39886 v -12.80629 -12.80628 l -1.2145,-0.18213 c -2.4951,-0.37416 -5.43981,0.36831 -7.40468,1.86698 -0.46371,0.35369 -0.99259,0.67754 -1.1753,0.71967 l -0.3322,0.0766 0.0612,-1.71979 c 0.0337,-0.94589 0.1393,-2.46407 0.2347,-3.37374 l 0.17345,-1.65394 13.95683,-0.0658 13.956843,-0.0659 10e-4,0.92604 c 7.2e-4,0.50933 0.0782,2.0869 0.17214,3.50573 l 0.17083,2.57969 h -0.32297 c -0.17763,0 -0.84469,-0.35896 -1.48236,-0.79769 -0.63766,-0.43872 -1.73068,-1.04696 -2.42892,-1.35163 l -1.26952,-0.55394 -2.31511,-0.14028 -2.315103,-0.14028 v 12.94046 12.94045 l 0.52916,1.90956 c 0.291053,1.05026 0.529173,1.9706 0.529173,2.04521 0,0.0746 -2.497363,0.13564 -5.549703,0.13564 h -5.5497 z M 113.89888,250.965 c 0.10063,-0.9095 0.29407,-2.66567 0.42987,-3.9026 0.27546,-2.50914 0.28832,-10.75919 0.0299,-19.18229 l -0.17047,-5.55625 -0.72761,-1.48158 c -0.40018,-0.81487 -0.7276,-1.61854 -0.7276,-1.78594 v -0.30436 l 1.78594,-0.007 c 0.98226,-0.004 3.54211,-0.0786 5.68854,-0.16576 l 3.9026,-0.15855 v 0.24429 c 0,0.13437 -0.23652,1.32801 -0.5256,2.65254 l -0.52561,2.40824 -0.16047,11.73458 -0.16046,11.73458 0.58179,2.11667 c 0.31998,1.16416 0.6426,2.38455 0.71691,2.71198 l 0.13513,0.59531 h -5.22791 -5.22791 z M 92.421107,210.45569 c -1.43542,-0.78114 -2.13115,-1.94443 -4.29713,-7.18503 -0.90145,-2.18106 -2.20851,-5.33477 -2.90458,-7.00826 -0.69607,-1.67349 -1.81727,-4.38893 -2.49156,-6.03431 -1.61092,-3.93094 -3.56266,-7.7939 -5.45714,-10.80098 -1.89487,-3.00771 -2.37351,-2.74388 4.97784,-2.74388 h 6.20445 l -0.16191,0.72761 c -0.0891,0.40018 -0.23883,1.5262 -0.33285,2.50227 l -0.17095,1.77467 0.59276,1.40033 c 0.71391,1.68655 4.02325,9.23648 5.02081,11.4545 0.39269,0.87312 1.05198,2.39256 1.4651,3.37653 0.41311,0.98396 0.77805,1.75787 0.81096,1.71979 0.66266,-0.7666 5.052833,-11.30773 6.199683,-14.8859 l 0.84803,-2.64584 0.14677,-1.90761 0.14677,-1.90761 -0.4554,-0.69503 c -0.59809,-0.91279 -0.84546,-0.84954 3.73188,-0.95422 4.77551,-0.10922 4.667,-0.17705 3.3316,2.08229 -1.87313,3.16911 -2.17017,3.82695 -9.0537,20.05093 -1.481803,3.4925 -3.169993,7.44024 -3.751543,8.77275 l -1.05736,2.42276 -0.70961,0.26772 c -1.29027,0.48679 -2.02521,0.54723 -2.63292,0.21652 z m 75.824293,-0.2961 c -1.35536,-0.37187 -3.00576,-1.29603 -3.32173,-1.86004 -0.11004,-0.19642 -0.97738,-1.16943 -1.92741,-2.16224 -0.95004,-0.99282 -3.26187,-3.47199 -5.13741,-5.50928 -1.87554,-2.0373 -3.5397,-3.82323 -3.69814,-3.96875 -0.15844,-0.14553 -1.95426,-2.09916 -3.99072,-4.34141 l -3.70265,-4.07682 -0.20274,6.59036 c -0.22974,7.46786 -0.13634,9.39682 0.60541,12.50238 0.28785,1.20521 0.52337,2.30282 0.52337,2.43912 v 0.24782 h -3.30729 -3.30729 v -0.35545 c 0,-0.1955 0.25293,-1.0587 0.56206,-1.91823 l 0.56206,-1.56278 0.13206,-11.80331 0.13206,-11.80331 -0.32419,-0.98231 c -0.17831,-0.54028 -0.85108,-1.76804 -1.49505,-2.72837 -1.46434,-2.18371 -1.54993,-2.12213 3.20913,-2.30865 l 3.96875,-0.15554 2.24895,2.6758 c 1.23693,1.47169 2.96334,3.47923 3.83646,4.4612 0.87313,0.98196 2.18282,2.48701 2.91042,3.34454 0.7276,0.85753 1.56104,1.80823 1.85208,2.11268 0.29104,0.30444 0.96143,1.08144 1.48976,1.72665 0.52832,0.64522 1.33238,1.58984 1.78679,2.09917 0.45442,0.50932 1.50947,1.72075 2.34456,2.69207 0.8351,0.97132 1.55336,1.73103 1.59614,1.68825 0.0428,-0.0428 0.18909,-2.0278 0.32514,-4.41117 l 0.24736,-4.33338 -0.25886,-3.8554 c -0.22635,-3.37142 -0.4286,-4.60057 -1.20518,-7.32464 l -0.16972,-0.59532 h 3.76589 3.76588 l -0.14186,0.46303 c -0.078,0.25466 -0.40067,1.29645 -0.71698,2.3151 l -0.57511,1.85208 -0.2368,12.30313 c -0.13024,6.76672 -0.26798,13.30557 -0.30607,14.53078 l -0.0693,2.22767 -0.26458,0.0625 c -0.14552,0.0344 -0.8229,-0.0907 -1.50528,-0.27792 z M 44.999637,209.90648 c 0,-0.17692 0.30842,-1.32491 0.68539,-2.5511 l 0.6854,-2.22944 0.12179,-3.04271 c 0.067,-1.67349 0.0251,-7.15036 -0.093,-12.17083 l -0.21479,-9.12812 -0.89771,-1.92161 c -1.11778,-2.3927 -1.73317,-2.13911 5.68272,-2.34173 l 6.33332,-0.17304 2.91042,0.31039 c 9.02965,0.96301 13.7631,4.27511 16.05368,11.23313 l 0.53465,1.62411 0.13904,2.38295 0.13903,2.38296 -0.41563,2.00979 c -1.52937,7.39527 -7.10284,12.22738 -15.69878,13.61061 l -2.53254,0.40752 -6.7165,-0.0406 -6.71649,-0.0406 z m 16.47086,-4.36912 c 3.82568,-1.46336 6.01983,-4.52609 6.82538,-9.52725 l 0.31765,-1.97208 -0.16173,-1.73209 c -0.35963,-3.8514 -1.54514,-6.84666 -3.51009,-8.8684 l -1.22187,-1.25719 -1.48875,-0.68547 -1.48875,-0.68547 -2.43763,-0.10985 c -1.3407,-0.0604 -2.73969,-0.034 -3.10886,0.0586 l -0.67121,0.16847 v 12.51857 c 0,14.33621 -0.31239,12.96231 2.91041,12.80049 l 2.51354,-0.1262 z m 51.800933,4.28494 c 0.005,-0.25467 0.20086,-1.23693 0.435,-2.18282 l 0.4257,-1.71979 0.11244,-12.46762 0.11244,-12.46762 -0.80644,-2.07682 c -1.05051,-2.70542 -1.90296,-2.50486 10.31117,-2.42588 l 10.69935,0.0692 -0.0954,2.91042 c -0.11369,3.46738 0.0555,3.19912 -1.52159,2.41272 -2.44734,-1.22036 -6.77563,-1.71624 -9.58817,-1.0985 l -0.83338,0.18302 v 4.74148 4.74148 l 2.18281,0.0627 c 1.20055,0.0345 3.16508,0.026 4.36563,-0.0189 l 2.18281,-0.0816 7e-5,2.0694 6e-5,2.0694 -4.36569,-0.0933 -4.36569,-0.0933 v 5.41653 5.41654 l 0.99219,0.17162 c 0.5457,0.0944 2.13175,0.24573 3.52456,0.33629 l 2.53237,0.16466 2.09784,-0.46263 c 1.15381,-0.25445 2.84697,-0.82177 3.76257,-1.26071 2.09888,-1.00621 2.09945,-0.99934 0.45866,5.55177 l -0.1491,0.59532 H 124.50189 113.26213 Z M 0.28504704,209.8937 c 0,-0.11463 0.80964996,-1.06077 1.79921996,-2.10253 l 1.79922,-1.89411 1.1409,-2.63454 c 0.62749,-1.449 1.53329,-3.52751 2.01287,-4.61892 0.47959,-1.09141 2.87008,-6.56828 5.31218,-12.17083 l 4.4402,-10.18646 0.0131,-1.32292 c 0.007,-0.7276 -0.086,-1.87213 -0.2071,-2.54339 l -0.22018,-1.22048 4.68248,-0.19383 4.68247,-0.19384 0.22259,0.22369 c 0.12242,0.12303 2.91915,6.95072 6.21495,15.17264 6.92423,17.27366 6.9461,17.32266 9.23714,20.70147 0.95287,1.40528 1.73249,2.6973 1.73249,2.87116 v 0.3161 l -7.34219,-0.19321 c -8.37761,-0.22046 -7.70673,-0.0754 -7.05286,-1.52539 l 0.50442,-1.11861 v -2.01165 -2.01166 l -0.79375,-1.56879 -0.79375,-1.56879 -1.21947,-0.60541 -1.21947,-0.60541 -3.07778,-0.3076 -3.07777,-0.3076 -2.64749,0.29382 -2.6475,0.29382 -1.19494,0.57845 -1.19493,0.57846 -0.71081,1.2129 -0.7108,1.2129 -0.11142,2.33038 -0.11141,2.33038 0.3087,1.22599 c 0.16979,0.6743 0.25559,1.27912 0.19066,1.34405 -0.21652,0.21651 -9.95993996,0.43149 -9.95993996,0.21976 z M 25.347137,194.21183 c -0.0575,-0.10914 -1.39836,-3.14491 -2.97967,-6.74615 -1.58131,-3.60125 -2.95213,-6.45875 -3.04627,-6.35 -0.0941,0.10874 -0.35521,0.67396 -0.58016,1.25605 -0.22495,0.58208 -0.70629,1.71317 -1.06964,2.51354 -0.36335,0.80036 -1.01754,2.28864 -1.45375,3.30729 -0.43621,1.01864 -1.21842,2.83435 -1.73824,4.03489 l -0.94512,2.18282 h 5.9587 c 3.27729,0 5.91166,-0.0893 5.85415,-0.19844 z m 158.354633,15.24991 c 0.0748,-0.34742 0.44904,-1.6868 0.83155,-2.97638 l 0.69548,-2.34471 v -11.47046 -11.47047 l -0.59531,-0.33654 -0.59531,-0.33654 -1.98438,0.003 -1.98437,0.003 -1.45521,0.75551 c -0.80037,0.41553 -1.90169,1.10714 -2.4474,1.53692 l -0.99219,0.78142 v -3.59411 -3.59411 h 8.29172 c 4.56044,0 10.81122,-0.0785 13.89062,-0.17437 l 5.59891,-0.17436 v 3.74624 3.74624 h -0.25283 c -0.13906,0 -0.92452,-0.47052 -1.74548,-1.0456 -0.82096,-0.57508 -2.06554,-1.23589 -2.76575,-1.46846 l -1.27311,-0.42286 -1.67776,0.0794 -1.67777,0.0794 -0.0688,12.26499 -0.0688,12.26499 0.67143,2.12545 c 0.81458,2.57859 1.52495,2.22944 -5.00338,2.45921 l -5.5279,0.19456 z m -40.01255,-43.51597 c -11.48957,-3.93474 -27.00819,-7.01278 -43.52396,-8.63275 l -3.439583,-0.33737 -11.64167,-0.002 -11.64167,-0.002 -3.57187,0.34869 c -14.63532,1.42874 -26.46657,4.07746 -39.09219,8.75174 -4.67315,1.73011 -0.90461,-0.37526 4.8986,-2.7367 15.12257,-6.15367 29.62513,-9.42328 46.49671,-10.48272 l 5.02709,-0.31567 8.06979,0.14818 c 14.625443,0.26855 25.287773,1.67414 43.516563,5.73669 l 6.07803,1.35457 0.97165,-0.16416 c 0.53441,-0.0903 1.72836,-0.52677 2.65322,-0.96995 l 1.68158,-0.8058 -1.1362,-0.49271 c -11.76013,-5.09975 -33.24879,-9.02574 -51.515883,-9.41198 l -7.67292,-0.16224 -5.26516,0.31457 c -2.89583,0.17301 -7.30114,0.54921 -9.78958,0.836 -13.90994,1.6031 -28.77509,5.18497 -41.27355,9.94515 -2.94925,1.12326 -3.18533,1.00312 -0.4926,-0.25068 3.97181,-1.84938 12.04454,-4.66584 19.25006,-6.71608 33.06175,-9.4073 68.237763,-7.70209 96.437773,4.67497 l 1.86962,0.82058 0.85255,-0.59068 c 1.70933,-1.18429 7.45178,-6.54992 7.23833,-6.76336 -0.18183,-0.18183 -6.07466,-1.70848 -12.16574,-3.15176 -15.55112,-3.68484 -29.08631,-5.95918 -43.43253,-7.29804 l -3.704173,-0.3457 -7.40833,0.005 -7.40834,0.005 -4.23333,0.47505 c -14.30697,1.60548 -42.49681,7.40205 -51.94822,10.68192 l -0.43928,0.15244 0.39688,-0.39968 c 0.21828,-0.21983 0.75406,-0.52376 1.19062,-0.6754 0.43656,-0.15164 2.61354,-0.9442 4.83773,-1.76126 4.97494,-1.82753 14.84033,-4.96281 19.23935,-6.11438 0.72761,-0.19047 2.45401,-0.64517 3.83646,-1.01044 7.198,-1.90184 17.54168,-3.86609 25.4,-4.8234 l 3.57188,-0.43514 8.27689,-0.13066 8.276893,-0.13066 4.29082,0.30373 c 9.57115,0.67749 16.53964,1.60389 31.14602,4.14057 l 8.59896,1.49338 3.43958,0.0378 3.43959,0.0378 0.59531,-0.34004 0.59531,-0.34004 v -0.77797 -0.77796 l -1.20317,-2.30015 c -2.32011,-4.43547 -9.0411,-13.85497 -18.06154,-25.31332 -5.39935,-6.85861 -5.33541,-7.10891 0.23962,-0.93808 2.38739,2.64254 4.46117,4.93577 4.6084,5.09608 0.50977,0.55508 6.5441,7.43812 7.10574,8.10514 0.31024,0.36845 1.23034,1.44002 2.04466,2.38125 10.83111,12.51916 20.67748,25.94355 19.72638,26.89465 -0.0895,0.0895 -2.33361,-0.44848 -4.98701,-1.19542 -2.65339,-0.74695 -4.90678,-1.27057 -5.00753,-1.16361 -0.10074,0.10696 -1.68726,2.27806 -3.52558,4.82468 -6.39651,8.86104 -8.66395,11.906 -8.83632,11.86635 -0.0954,-0.0219 -1.66172,-0.54958 -3.48073,-1.17252 z M 6.820157,166.72593 c -0.0696,-0.0696 0.29019,-1.45933 0.79953,-3.08829 l 0.92608,-2.96175 3.19299,-5.02708 c 5.21143,-8.20495 14.97227,-22.5749 19.97804,-29.41176 6.24202,-8.52532 6.63901,-9.05236 15.58138,-20.68551 4.09926,-5.33275 14.27145,-17.503183 20.02251,-23.955771 0.89306,-1.00199 1.68327,-1.911746 1.75603,-2.021678 0.21951,-0.331654 5.7452,-6.270726 8.8555,-9.517979 8.14676,-8.505491 18.84006,-18.649067 25.143463,-23.850855 6.08459,-5.021225 9.89712,-7.978222 15.08125,-11.697014 4.80209,-3.44474 4.9009,-3.109855 0.26458,0.896654 -18.467563,15.958853 -42.532003,40.024134 -54.251603,54.25348 -0.42995,0.52203 -2.2778,2.72469 -4.10633,4.8948 -5.53449,6.568343 -16.78191,21.025893 -19.57123,25.157063 -0.21313,0.31566 -1.46753,2.1016 -2.78757,3.96875 -1.32003,1.86715 -2.79833,3.99013 -3.2851,4.71774 -0.48677,0.7276 -1.80085,2.69213 -2.92019,4.36562 -6.10889,9.13326 -13.12327,20.71445 -17.60154,29.06129 l -0.75774,1.41233 -1.33435,0.67241 c -0.73389,0.36982 -2.12743,1.18353 -3.09675,1.80825 -0.96932,0.62472 -1.81935,1.0789 -1.88895,1.0093 z m 23.22223,-11.19601 c 0.0803,-0.12997 0.71037,-0.44478 1.40009,-0.69958 0.68971,-0.2548 1.38158,-0.55875 1.53746,-0.67544 2.3515,-1.76025 22.03684,-7.68839 32.26032,-9.71504 9.74413,-1.93162 16.95075,-2.66944 27.98518,-2.86516 l 8.670603,-0.15379 4.55857,0.31497 c 15.483,1.06979 31.03878,4.54091 43.05544,9.60741 5.72549,2.41399 5.25563,2.53393 -1.35637,0.34622 -14.40327,-4.76561 -29.41147,-7.36726 -46.77866,-8.10902 l -6.727743,-0.28734 -6.40046,0.29108 c -20.1063,0.91438 -36.90594,4.29767 -55.75977,11.2295 -1.42488,0.52387 -2.52498,0.84616 -2.44466,0.71619 z m 1.72808,-14.3062 c 0,-0.59321 14.62971,-21.48592 20.09299,-28.69482 1.09984,-1.45127 2.17831,-2.90492 2.39659,-3.23034 0.68132,-1.01572 10.19776,-13.327463 11.72217,-15.165363 0.18105,-0.21828 1.74853,-2.12328 3.48329,-4.23334 3.26269,-3.968528 6.87145,-8.239144 8.72946,-10.330463 0.58751,-0.661289 1.47806,-1.67332 1.979,-2.248959 16.83217,-19.342341 37.151863,-37.154147 52.931913,-46.398971 1.09141,-0.639406 2.41627,-1.434122 2.94413,-1.766036 8.36249,-5.258207 23.17761,-10.563485 33.61601,-12.037856 l 4.05341,-0.572523 4.36562,-0.03353 4.36563,-0.03353 0.0807,0.251566 c 0.0444,0.138361 -0.68871,0.462334 -1.62909,0.719939 -12.10786,3.316786 -24.19273,12.475557 -34.54306,26.17918 l -2.12165,2.809018 -6.82262,1.654754 c -15.54359,3.769935 -20.43466,5.490932 -23.79528,8.372736 l -1.019,0.873812 2.38125,-0.819416 c 3.37234,-1.16046 5.39811,-1.692918 8.73125,-2.294931 4.69029,-0.847138 5.06655,-0.884598 10.00483,-0.996087 l 4.71316,-0.106407 0.50113,0.2682 0.50114,0.268199 -2.06273,3.370135 c -2.42511,3.962194 -6.74421,11.654466 -12.73713,22.684718 -2.37192,4.365624 -5.62679,10.124753 -7.23306,12.798053 l -2.92048,4.86056 -1.12101,0.48052 c -3.88833,1.66673 -11.1168,3.292312 -22.851063,5.138862 -14.06708,2.21365 -19.92417,4.05178 -24.9639,7.8344 l -1.09756,0.82378 0.52917,-0.14551 c 0.29104,-0.08 1.30307,-0.2898 2.24896,-0.46617 l 1.71979,-0.32067 4.7625,0.0174 c 2.61937,0.01 7.62,0.20502 11.1125,0.4344 3.4925,0.22937 8.70611,0.49761 11.5858,0.59607 6.009003,0.20548 5.995433,0.19948 3.962573,1.75266 -13.597803,10.3893 -37.260293,20.41024 -62.644213,26.52951 -2.76489,0.66653 -5.23544,1.27266 -5.4901,1.34696 l -0.46302,0.13508 z"
       id="path1" /></g></svg>
