<?xml version="1.0" encoding="UTF-8" standalone="no"?>
<!-- Created with Inkscape (http://www.inkscape.org/) -->

<svg
   width="175.72176mm"
   height="150.64018mm"
   viewBox="0 0 175.72176 150.64018"
   version="1.1"
   id="svg1"
   inkscape:version="1.4.3 (0d15f75042, 2025-12-25)"
   sodipodi:docname="sentinel-minimal.svg"
   xmlns:inkscape="http://www.inkscape.org/namespaces/inkscape"
   xmlns:sodipodi="http://sodipodi.sourceforge.net/DTD/sodipodi-0.dtd"
   xmlns="http://www.w3.org/2000/svg"
   xmlns:svg="http://www.w3.org/2000/svg">
  <sodipodi:namedview
     id="namedview1"
     pagecolor="#ffffff"
     bordercolor="#000000"
     borderopacity="0.25"
     inkscape:showpageshadow="2"
     inkscape:pageopacity="0.0"
     inkscape:pagecheckerboard="0"
     inkscape:deskcolor="#d1d1d1"
     inkscape:document-units="mm"
     inkscape:zoom="1.6748036"
     inkscape:cx="350.48886"
     inkscape:cy="481.84755"
     inkscape:window-width="3840"
     inkscape:window-height="2091"
     inkscape:window-x="0"
     inkscape:window-y="0"
     inkscape:window-maximized="1"
     inkscape:current-layer="layer1" />
  <defs
     id="defs1" />
  <g
     inkscape:label="Layer 1"
     inkscape:groupmode="layer"
     id="layer1"
     transform="translate(-12.397781,16.933333)">
    <path
       style="fill:#000000"
       d="m 149.27546,132.53445 c -11.48957,-3.93474 -27.00819,-7.01278 -43.52396,-8.63275 l -3.43958,-0.33737 -11.641673,-0.002 -11.64167,-0.002 -3.57187,0.34869 c -14.63532,1.42874 -26.46657,4.07746 -39.09219,8.75174 -4.67315,1.73011 -0.90461,-0.37526 4.8986,-2.7367 15.12257,-6.15367 29.62513,-9.42328 46.49671,-10.48272 l 5.02709,-0.31567 8.069793,0.14818 c 14.62544,0.26855 25.28777,1.67414 43.51656,5.73669 l 6.07803,1.35457 0.97165,-0.16416 c 0.53441,-0.0903 1.72836,-0.52677 2.65322,-0.96995 l 1.68158,-0.8058 -1.1362,-0.49271 c -11.76013,-5.09975 -33.24879,-9.02574 -51.51588,-9.41198 l -7.672923,-0.16224 -5.26516,0.31457 c -2.89583,0.17301 -7.30114,0.54921 -9.78958,0.836 -13.90994,1.6031 -28.77509,5.18497 -41.27355,9.94515 -2.94925,1.12326 -3.18533,1.00312 -0.4926,-0.25068 3.97181,-1.84938 12.04454,-4.66584 19.25006,-6.71608 33.06175,-9.4073 68.237763,-7.70209 96.437773,4.67497 l 1.86962,0.82058 0.85255,-0.59068 c 1.70933,-1.18429 7.45178,-6.54992 7.23833,-6.76336 -0.18183,-0.18183 -6.07466,-1.70848 -12.16574,-3.15176 -15.55112,-3.68484 -29.08631,-5.95918 -43.43253,-7.29804 l -3.70417,-0.3457 -7.408333,0.005 -7.40834,0.005 -4.23333,0.47505 c -14.30697,1.60548 -42.49681,7.40205 -51.94822,10.68192 l -0.43928,0.15244 0.39688,-0.39968 c 0.21828,-0.21983 0.75406,-0.52376 1.19062,-0.6754 0.43656,-0.15164 2.61354,-0.9442 4.83773,-1.76126 4.97494,-1.82753 14.84033,-4.96281 19.23935,-6.11438 0.72761,-0.19047 2.45401,-0.64517 3.83646,-1.01044 7.198,-1.90184 17.54168,-3.86609 25.4,-4.8234 l 3.57188,-0.43514 8.276893,-0.13066 8.27689,-0.13066 4.29082,0.30373 c 9.57115,0.67749 16.53964,1.60389 31.14602,4.14057 l 8.59896,1.49338 3.43958,0.0378 3.43959,0.0378 0.59531,-0.34004 0.59531,-0.34004 v -0.77797 -0.77796 l -1.20317,-2.30015 c -2.32011,-4.435472 -9.0411,-13.854972 -18.06154,-25.313322 -5.39935,-6.85861 -5.33541,-7.10891 0.23962,-0.93808 2.38739,2.64254 4.46117,4.93577 4.6084,5.09608 0.50977,0.55508 6.5441,7.43812 7.10574,8.10514 0.31024,0.36845 1.23034,1.44002 2.04466,2.38125 10.83111,12.519162 20.67748,25.943552 19.72638,26.894652 -0.0895,0.0895 -2.33361,-0.44848 -4.98701,-1.19542 -2.65339,-0.74695 -4.90678,-1.27057 -5.00753,-1.16361 -0.10074,0.10696 -1.68726,2.27806 -3.52558,4.82468 -6.39651,8.86104 -8.66395,11.906 -8.83632,11.86635 -0.0954,-0.0219 -1.66172,-0.54958 -3.48073,-1.17252 z m -136.869063,0.78016 c -0.0696,-0.0696 0.29019,-1.45933 0.79953,-3.08829 l 0.92608,-2.96175 3.19299,-5.02708 c 5.21143,-8.20495 14.97227,-22.574902 19.97804,-29.411762 6.24202,-8.52532 6.63901,-9.05236 15.58138,-20.68551 4.09926,-5.33275 14.27145,-17.503183 20.02251,-23.955771 0.89306,-1.00199 1.68327,-1.911746 1.75603,-2.021678 0.21951,-0.331654 5.7452,-6.270726 8.8555,-9.517979 8.14676,-8.505491 18.840063,-18.649067 25.143463,-23.850855 6.08459,-5.021225 9.89712,-7.978222 15.08125,-11.697014 4.80209,-3.44474 4.9009,-3.109855 0.26458,0.896654 -18.46756,15.958853 -42.532003,40.024134 -54.251603,54.25348 -0.42995,0.52203 -2.2778,2.72469 -4.10633,4.8948 -5.53449,6.568343 -16.78191,21.025893 -19.57123,25.157063 -0.21313,0.31566 -1.46753,2.1016 -2.78757,3.96875 -1.32003,1.86715 -2.79833,3.99013 -3.2851,4.71774 -0.48677,0.7276 -1.80085,2.69213 -2.92019,4.36562 -6.10889,9.133262 -13.12327,20.714452 -17.60154,29.061292 l -0.75774,1.41233 -1.33435,0.67241 c -0.73389,0.36982 -2.12743,1.18353 -3.09675,1.80825 -0.96932,0.62472 -1.81935,1.0789 -1.88895,1.0093 z m 23.22223,-11.19601 c 0.0803,-0.12997 0.71037,-0.44478 1.40009,-0.69958 0.68971,-0.2548 1.38158,-0.55875 1.53746,-0.67544 2.3515,-1.76025 22.03684,-7.68839 32.26032,-9.71504 9.74413,-1.93162 16.95075,-2.66944 27.98518,-2.86516 l 8.670603,-0.15379 4.55857,0.31497 c 15.483,1.06979 31.03878,4.54091 43.05544,9.60741 5.72549,2.41399 5.25563,2.53393 -1.35637,0.34622 -14.40327,-4.76561 -29.41147,-7.36726 -46.77866,-8.10902 l -6.72774,-0.28734 -6.400463,0.29108 c -20.1063,0.91438 -36.90594,4.29767 -55.75977,11.2295 -1.42488,0.52387 -2.52498,0.84616 -2.44466,0.71619 z m 1.72808,-14.3062 c 0,-0.59321 14.62971,-21.485922 20.09299,-28.694822 1.09984,-1.45127 2.17831,-2.90492 2.39659,-3.23034 0.68132,-1.01572 10.19776,-13.327463 11.72217,-15.165363 0.18105,-0.21828 1.74853,-2.12328 3.48329,-4.23334 3.26269,-3.968528 6.87145,-8.239144 8.72946,-10.330463 0.58751,-0.661289 1.47806,-1.67332 1.979,-2.248959 16.832173,-19.342341 37.151863,-37.154147 52.931913,-46.398971 1.09141,-0.639406 2.41627,-1.434122 2.94413,-1.766036 8.36249,-5.258207 23.17761,-10.563485 33.61601,-12.037856 l 4.05341,-0.572523 4.36562,-0.03353 4.36563,-0.03353 0.0807,0.251566 c 0.0444,0.138361 -0.68871,0.462334 -1.62909,0.719939 -12.10786,3.316786 -24.19273,12.475557 -34.54306,26.17918 l -2.12165,2.809018 -6.82262,1.654754 c -15.54359,3.769935 -20.43466,5.490932 -23.79528,8.372736 l -1.019,0.873812 2.38125,-0.819416 c 3.37234,-1.16046 5.39811,-1.692918 8.73125,-2.294931 4.69029,-0.847138 5.06655,-0.884598 10.00483,-0.996087 l 4.71316,-0.106407 0.50113,0.2682 0.50114,0.268199 -2.06273,3.370135 c -2.42511,3.962194 -6.74421,11.654466 -12.73713,22.684718 -2.37192,4.365624 -5.62679,10.124753 -7.23306,12.798053 l -2.92048,4.86056 -1.12101,0.48052 c -3.88833,1.66673 -11.1168,3.292312 -22.851063,5.138862 -14.06708,2.21365 -19.92417,4.05178 -24.9639,7.8344 l -1.09756,0.82378 0.52917,-0.14551 c 0.29104,-0.08 1.30307,-0.2898 2.24896,-0.46617 l 1.71979,-0.32067 4.7625,0.0174 c 2.61937,0.01 7.62,0.20502 11.1125,0.4344 3.4925,0.22937 8.70611,0.49761 11.585803,0.59607 6.009,0.20548 5.99543,0.19948 3.96257,1.75266 -13.597803,10.3893 -37.260293,20.410242 -62.644213,26.529512 -2.76489,0.66653 -5.23544,1.27266 -5.4901,1.34696 l -0.46302,0.13508 z"
       id="path1"
       sodipodi:nodetypes="cscccsssscsscsscsscsssssscsssscccsscsssssscccsscccccccsssssssssscccsscsssssssssssssscscssssscsscsssscssssssssscscscccssscsscssscccssscsssccsccsscsscs" />
  </g>
</svg>
